# xmcd
#
# Track frame offsets:
#	150
#	14259
#	25182
#	41724
#	55174
#	69459
#	87368
#	99355
#	113464
#	126141
#	138647
#	152879
#	166956
#	185700
#
# Disc length: 2729
#
# Revision: 3
# Processed by: cddbd v1.5.1PL0 Copyright (c) Steve Scherf et al.
# Submitted via: CDex 1.50
# Normalized: r2:TRMNUM
#
DISCID=b70aa70e
DTITLE=Norah Jones - Come awat with me
DYEAR=2002
DGENRE=Blues
TTITLE0=I don't know why
TTITLE1=Seven years
TTITLE2=Cold cold heart
TTITLE3=Feelin'the same way
TTITLE4=Come away with me
TTITLE5=Shoot the moon
TTITLE6=Turn me on
TTITLE7=Lonestar
TTITLE8=I've got to see you again
TTITLE9=Painter song
TTITLE10=One flight down
TTITLE11=Nightingale
TTITLE12=The long day is over
TTITLE13=The nearness of you
EXTD=YEAR: 2002
EXTT0=
EXTT1=
EXTT2=
EXTT3=
EXTT4=
EXTT5=
EXTT6=
EXTT7=
EXTT8=
EXTT9=
EXTT10=
EXTT11=
EXTT12=
EXTT13=
PLAYORDER=
